<svg version="1.2" xmlns="http://www.w3.org/2000/svg" viewBox="0 0 250 58" width="250" height="58">
	<title>geeklism</title>
	<style>
		.s0 { fill: #000000 } 
	</style>
	<path id="Geeklism" class="s0" aria-label="Geeklism"  d="m23.5 27.2l-1.6 7.3h11.6v10.3c-1.2 0.2-2.6 0.4-4 0.4-9.3 0-17.3-4.3-17.3-14.4 0-10.7 9-13.6 16.1-13.6 4.3 0 7.7 1.1 10.6 2.6l2-7.8c-2.7-1.3-6.7-2.5-12.4-2.5-9.7 0-24.7 4.3-24.7 21.6 0 15.9 13.4 21.6 25.3 21.6 4.6 0 9.5-0.9 12.2-2v-23.5zm50.4 23.3v-6.9c-2 1.5-5.5 2.5-8.9 2.5-6.3 0-9.8-2.3-10.8-6.7h20.9c0.2-0.9 0.2-2.5 0.2-3.6 0-8.2-5-15.3-13.7-15.3-9.9 0-15.5 7.5-15.5 16.1 0 9.4 6 16.2 18.1 16.2 3.3 0 7.5-0.8 9.7-2.3zm-6.3-16.6h-13.5c0.7-4.2 3.2-6.8 7.2-6.8 3.5 0 5.9 2.7 6.3 6.8zm39 16.6v-6.9c-2.1 1.5-5.5 2.5-8.9 2.5-6.4 0-9.9-2.3-10.8-6.7h20.8c0.2-0.9 0.3-2.5 0.3-3.6 0-8.2-5.1-15.3-13.8-15.3-9.9 0-15.5 7.5-15.5 16.1 0 9.4 6 16.2 18.1 16.2 3.3 0 7.6-0.8 9.8-2.3zm-6.3-16.6h-13.6c0.7-4.2 3.3-6.8 7.2-6.8 3.6 0 5.9 2.7 6.4 6.8zm12.9 18.1h7.8v-14.6l11.2 14.6h9.8l-12.6-16.2 12.5-14.5h-9.5l-11.4 13.3v-26.4h-7.8zm31.9 0h7.9v-43.8h-7.9zm14.6 0h7.9v-30.7h-7.9zm-0.1-35.6h8v-8.2h-8zm34.7 6.5c-2-1.5-5.3-2.3-8.4-2.3-8.3 0-13.1 4-13.1 9.7 0 4.7 2.6 7 6.6 8.6l5 1.9c2.3 0.9 3.1 1.4 3.1 2.8 0 1.7-1.5 2.7-4.5 2.7-2.7 0-6.1-0.7-9.5-3.2v7.1c1.9 1.8 6 2.7 9.4 2.7 7.5 0 12.3-3.7 12.3-9.9 0-4.4-2.4-6.6-6.9-8.4l-4.9-2c-2.3-0.9-2.8-1.5-2.8-2.7 0-1.6 1.5-2.6 4.7-2.6 2.1 0 5 0.6 7.3 2.2zm5.6 29.2h7.9v-17.6c0-4.5 1.9-6.6 5.4-6.6 3 0 4.6 2.1 4.6 5.5v18.7h7.9v-17.6c0-4.5 1.9-6.6 5.4-6.6 3 0 4.6 2.1 4.6 5.5v18.7h7.9v-20.6c0-6.4-3.6-10.6-9.7-10.6-4.1 0-7.2 2.1-9.1 5.6-1.4-3.5-4.5-5.6-8.8-5.6-3.8 0-6.8 2-8.4 5.5v-5h-7.7z"/>
</svg>